<svg xmlns="http://www.w3.org/2000/svg" width="297" height="63" fill="none"><path fill="#D5B37A" d="M43.022 55.632a35.445 35.445 0 0 1-24.7-1.463l1.15-2.176a1.473 1.473 0 1 0-1.787.703h.181l-.523.95a35.483 35.483 0 0 1-6.479-4.037l-1.187 1.453a35.665 35.665 0 0 0 6.308 5.292l-1.34 2.546a1.473 1.473 0 1 0 1.787-.703h-.181L16.859 57a35.369 35.369 0 0 0 32.889 2.204 6.707 6.707 0 0 1-6.726-3.572ZM11.254 12.758a1.23 1.23 0 0 0 .485-.475l.522-.095v.133a2.489 2.489 0 0 0 4.874-1.007v-.047l.266-.048a15.07 15.07 0 0 1 .057 3.496l1.9-.36a15.195 15.195 0 0 1-1.036-2.604l5.301-.95a11.403 11.403 0 0 0 1.093-3.249L17.77 8.854c-.09-.948-.09-1.902 0-2.85l-1.9.36c.531 1.042.94 2.142 1.216 3.278l-.294.057-.086-.427V9.12a.959.959 0 0 0-.057-.143.722.722 0 0 0-.95-.294.712.712 0 0 0-.313.37.704.704 0 0 0-1.16.238.704.704 0 0 0-1.158.237.713.713 0 0 0-1.216.599l.095.494-.485.095a1.236 1.236 0 1 0-.209 2.042Zm11.353.694c-.31-.08-.63-.125-.95-.133a1.617 1.617 0 0 0 .161 3.23 29.808 29.808 0 0 0 4.75-1.767c-1.026.171-3.43.57-3.847.59a.96.96 0 1 1-.114-1.92ZM27.366 5.7l1.9.997 2.689 1.435 1.52.808 2.926 1.51 3.325-2.764.731-.086 5.539-1.035 1.197-1.749-1.748-1.206-5.539 1.045-3.306.627c.261.193.462.457.58.76v.598c.011.114.011.229 0 .343v.142a1.71 1.71 0 0 1-.58.836l-.152.104-.19.105a1.7 1.7 0 0 1-.712.162 1.7 1.7 0 0 1-1.368-.694l-.095-.133-.076-.143a1.711 1.711 0 0 1 1.539-2.46h.104l-.779-2.546-2.546.779a1.71 1.71 0 1 1-1.178-.617L30.407 0 27.86.788v.932l-.085.845v.599L27.357 5.7h.01Z"/><path fill="#D5B37A" d="M13.62 30.523a2.908 2.908 0 0 1-.257 2.28 3.8 3.8 0 0 0 2.49-2.802 11.579 11.579 0 0 0 4.132 1.406 5.862 5.862 0 0 0 .722-2.85 3.61 3.61 0 0 1 .503 2.955c.604.037 1.21.037 1.815 0a5.87 5.87 0 0 0 .826-3.012c.08.116.152.237.219.361a4.07 4.07 0 0 1 .304 2.508c.703-.105 1.399-.26 2.08-.465a5.854 5.854 0 0 0 .542-2.47c.079.116.152.236.218.36.248.533.378 1.113.38 1.701 1.02-.412 1.98-.962 2.85-1.634a5.61 5.61 0 0 0 1.216-1.492 7.08 7.08 0 0 1-.256.846c-.13.33-.289.648-.475.95.417.281.808.6 1.168.95.152.152.285.304.418.466a10.726 10.726 0 0 0-8.265 6.754 4.532 4.532 0 0 1 2.432 6.47c0 .085-.095.151-.152.237-.057.085-.123.2-.2.294a4.484 4.484 0 0 1-3.562 1.758c-.174.01-.348.01-.522 0h-.162a4.398 4.398 0 0 1-.484-.105h-.057a4.482 4.482 0 0 1-1.235-.588c-.086-.058-.171-.096-.266-.153a3.316 3.316 0 0 0-1.634-.436 3.306 3.306 0 0 0-3.22 4.246 3.553 3.553 0 0 1 6.212 3.126A10.45 10.45 0 0 0 31.565 43.7a4.912 4.912 0 0 1 0-5.396v-.067c.067-.104.152-.199.228-.303v-.057a4.93 4.93 0 0 1 2.603-1.663l.304-.114a10.593 10.593 0 0 1 .646-4.075c.133-.361.304-.713.475-1.064a10.629 10.629 0 0 0 0 5.044v.066a10.61 10.61 0 0 0 3.164 5.454 3.734 3.734 0 1 1 2.365 6.925h-.19a3.799 3.799 0 0 0-2.536 1.453 3.799 3.799 0 0 0-.57 1.036v.114a3.8 3.8 0 0 0 .57 3.382 3.544 3.544 0 0 1 6.735-1.663c.242.497.366 1.044.361 1.596.38-.155.723-.388 1.007-.684a10.45 10.45 0 0 0 1.007-13.622h-.085a5.017 5.017 0 0 1-4.589-3.553 4.873 4.873 0 0 1 0-2.66v-.286a5.11 5.11 0 0 1 2.698-3.116 5.605 5.605 0 0 0 .257-10.278 5.605 5.605 0 1 0-4.75 0 5.605 5.605 0 0 0-1.653 1.168v.047a6.342 6.342 0 0 0-.333.38l-.066.076a4.482 4.482 0 0 0-.314.457l-.057.104a4.6 4.6 0 0 0-.209.39l-.066.151a4.472 4.472 0 0 0-.2.494c-.1.31-.173.628-.218.95 0 .124 0 .248-.057.371v.38c0 2.85 3.942 2.166 3.942 2.166a1.53 1.53 0 0 1-.95-1.159c0-1.026 1.786-2.413-.57-2.67.084-.155.18-.304.285-.446.118-.153.249-.295.39-.427l.104-.095c.12-.107.247-.205.38-.295l.095-.066a3.64 3.64 0 0 1 1.112-.476h.066a3.77 3.77 0 0 1 .57-.076h.21a3.64 3.64 0 0 1 3.619 4.228c-.219 2.071-2.328 3.8-5.016 3.961h-.266a8.265 8.265 0 0 1-4.513-1.177 7.951 7.951 0 0 1-3.62-6.65v-.057a5.838 5.838 0 0 0-.246-.59 5.89 5.89 0 0 0-2.955-2.773c.138-.027.278-.046.418-.058a4.066 4.066 0 0 1 2.717.95c.082-.658.215-1.31.4-1.947a5.863 5.863 0 0 0-2.366-1.843c.138-.026.277-.045.418-.057.837-.03 1.663.2 2.365.655a12.8 12.8 0 0 1 .798-1.624 5.862 5.862 0 0 0-2.413-1.9 4.14 4.14 0 0 1 .418-.057 4.067 4.067 0 0 1 2.556.807v-2.28l-3.8-2.013-2.29-1.273-1.9-1.017-1.33-.712c-.07.234-.146.465-.228.693l-.123.333a11.847 11.847 0 0 1-1.815 3.04l-.17.209-.19.199-.134.143a2.09 2.09 0 0 1 .361 2.023c.114.295.219.599.295.95a2.45 2.45 0 1 1 .323 3.163 10 10 0 0 1-.409 2.309v.047l-.047.172a7.924 7.924 0 0 1-.912 2.005 8.354 8.354 0 0 1-1.197 1.472c-.3.282-.618.545-.95.788a7.933 7.933 0 0 0 1.53-3.448 7.324 7.324 0 0 1-3.744-1.093 5.882 5.882 0 0 1-.475 1.567 7.03 7.03 0 0 1-.437.77 5.7 5.7 0 0 0 .114-2.907v-.066h-.066a5.7 5.7 0 0 0-2.584.17c.247-.161.504-.307.77-.436a5.897 5.897 0 0 1 1.12-.39 7.437 7.437 0 0 1-1.738-3.192l-.171.104a2.385 2.385 0 0 1-2.005.105v1.634c.003.853.144 1.7.418 2.508L13.8 22.42l3.335.484a7.856 7.856 0 0 0 3.914 1.483c-.247.19-.513.37-.78.532h4.893a12.348 12.348 0 0 1-2.736 1.681 9.33 9.33 0 0 1-8.55-.836l-.076-.114a3.848 3.848 0 0 0-5.472 4.19 2.916 2.916 0 0 1 5.292.683ZM39.982 15.2a3.666 3.666 0 1 1 7.333 0 3.666 3.666 0 0 1-7.333 0ZM28.506 9.662a.893.893 0 1 1-.798-.95.884.884 0 0 1 .808.93l-.01.02Z"/><path fill="#fff" d="M63 24.4c1.501-.257 1.776-.627 1.776-2.185V15.28c0-.627-.351-.95-1.776-.95v-.57h3.876l3.211 8.863h.105l3.144-8.863h3.857v.541c-1.425.048-1.757.2-1.757.722v8.55c0 .523.341.675 1.757.732v.541h-4.817v-.503c1.321-.048 1.454-.171 1.454-.732v-8.806h-.085l-3.706 10.08h-.693l-3.8-10.08h-.086v7.41c0 1.558.172 1.9 1.654 2.185v.494H63V24.4Zm15.6-.038c.95 0 1.234-.19 1.234-.589V18.51c0-.503-.237-.807-1.216-.826v-.523l2.641-.066v6.65c0 .408.238.57 1.235.589v.522H78.6v-.494Zm.95-10.184a.952.952 0 1 1 1.9-.085.948.948 0 0 1-.95 1.016.95.95 0 0 1-.96-.921l.01-.01Zm4.103 10.184c.95 0 1.235-.19 1.235-.59V18.51c0-.504-.256-.808-1.235-.827v-.522l2.622-.067v1.169a5.585 5.585 0 0 1 3.06-1.216c1.168 0 1.9.826 1.9 2.356v4.38c0 .408.237.57 1.234.588v.523h-3.686v-.532c.865 0 1.083-.19 1.083-.59v-3.8c0-1.5-.589-1.9-1.605-1.9a3.248 3.248 0 0 0-1.9.694v4.988c0 .408.218.57 1.064.589v.522h-3.772v-.503Zm9.975 0c.95 0 1.235-.19 1.235-.589V18.51c0-.503-.238-.807-1.216-.826v-.523l2.64-.066v6.65c0 .408.238.57 1.236.589v.522h-3.895v-.494Zm.95-10.184a.952.952 0 1 1 1.9-.085.948.948 0 0 1-.95 1.016.95.95 0 0 1-.95-.921v-.01Zm4.209 8.256h.446c.76 1.254 1.558 2.061 2.537 2.061a1.283 1.283 0 0 0 1.387-1.282c0-.798-.475-1.112-2.014-1.587-1.71-.503-2.318-1.102-2.318-2.166a2.44 2.44 0 0 1 2.717-2.47 3.428 3.428 0 0 1 1.605.437l.304-.437h.437v2.3h-.484c-.542-1.046-1.188-1.777-2.014-1.777a1.257 1.257 0 0 0-1.251.764 1.235 1.235 0 0 0-.098.509c0 .693.579 1.045 1.9 1.434 1.605.456 2.299 1.045 2.299 2.204a2.458 2.458 0 0 1-2.594 2.565 4.585 4.585 0 0 1-1.966-.541l-.504.541h-.39v-2.555Zm7.941.474v-5.006h-1.434v-.513l1.472-.304v-2.128l1.387-.608v2.85h2.48v.712h-2.48v4.855c0 .95.342 1.368 1.045 1.368a1.653 1.653 0 0 0 1.235-.95l.39.266a2.369 2.369 0 0 1-2.28 1.539c-1.131 0-1.815-.656-1.815-2.08Zm5.064 1.454c.95 0 1.235-.19 1.235-.59V18.51c0-.504-.257-.808-1.235-.827v-.522l2.641-.067v1.32a3.08 3.08 0 0 1 2.251-1.367 1.15 1.15 0 0 1 1.254 1.168.885.885 0 0 1-.237.666.894.894 0 0 1-.646.285.853.853 0 0 1-.95-.884 1.937 1.937 0 0 1 0-.285 2.03 2.03 0 0 0-1.691.95v4.75c0 .408.304.57 1.415.589v.522h-4.037v-.446Zm8.075-5.681a1.325 1.325 0 0 0-1.254-1.064v-.494h3.8v.494c-1.064.047-1.32.361-1.102.864l1.9 4.617 1.672-3.895c.418-1.016.342-1.405-.826-1.586v-.494h3.106v.494a1.757 1.757 0 0 0-1.33 1.264l-2.85 6.735c-.864 2.1-1.738 2.67-2.688 2.67a1.225 1.225 0 0 1-1.406-1.15.942.942 0 0 1 .57-.938.95.95 0 0 1 .38-.079.952.952 0 0 1 .893.95c-.002.17-.037.339-.105.495.57 0 1.083-.561 1.9-2.509l.086-.199-2.746-6.175Zm10.355 2.346a3.729 3.729 0 0 1 2.275-3.75 3.723 3.723 0 0 1 1.525-.287c2.385 0 3.8 1.624 3.8 3.97 0 2.347-1.539 4.029-3.809 4.029-2.271 0-3.791-1.587-3.791-3.962Zm5.985 0c0-2.365-.95-3.486-2.28-3.486-1.33 0-2.128 1.12-2.128 3.486s.95 3.496 2.28 3.496c1.33 0 2.138-1.159 2.138-3.524l-.01.028Zm2.527 3.335c.95 0 1.254-.19 1.254-.589v-5.871h-1.444v-.513l1.434-.304V16.8a4 4 0 0 1 .95-2.993 2.626 2.626 0 0 1 1.9-.807c1.264 0 1.9.627 1.9 1.264a.8.8 0 0 1-.807.883.949.949 0 0 1-.95-1.064 2.406 2.406 0 0 1 .038-.494.996.996 0 0 0-.418-.104.947.947 0 0 0-.713.285c-.304.303-.475.864-.475 2.175v1.168h2.147v.713h-2.147v5.9c0 .408.352.541 1.691.588v.523h-4.36v-.475Zm9.177-.019c1.425-.048 1.758-.2 1.758-.732v-8.55c0-.522-.342-.674-1.758-.722v-.58h9.035l.047 3.107h-.522c-.589-1.9-.893-2.508-2.793-2.508h-2.404v4.418h.998c1.254 0 1.729-.114 2.147-1.9h.456v4.398h-.456c-.418-1.757-.893-1.9-2.147-1.9h-.998v4.807h2.404c2.232 0 2.774-.883 3.363-2.85h.522l-.085 3.468h-9.567v-.456Zm11.068-3.258a3.782 3.782 0 0 1 .98-2.855 3.807 3.807 0 0 1 2.753-1.24c1.777 0 2.689.95 2.689 1.824a.887.887 0 0 1-.865.95.818.818 0 0 1-.893-.864 1.086 1.086 0 0 1 .542-.95 2.197 2.197 0 0 0-1.435-.494c-1.263 0-2.28 1.045-2.28 3.192 0 2.147 1.007 3.391 2.632 3.391a2.989 2.989 0 0 0 2.194-1.15l.342.324a3.52 3.52 0 0 1-3.097 1.776c-2.213 0-3.562-1.653-3.562-3.904Zm7.656-.058a3.729 3.729 0 0 1 2.275-3.75 3.726 3.726 0 0 1 1.525-.287c2.385 0 3.8 1.624 3.8 3.97 0 2.347-1.472 4.057-3.8 4.057-2.327 0-3.8-1.615-3.8-3.99Zm5.985 0c0-2.365-.95-3.486-2.28-3.486-1.33 0-2.128 1.12-2.128 3.486s.95 3.496 2.28 3.496c1.33 0 2.128-1.159 2.128-3.524v.028Zm2.556 3.335c.95 0 1.235-.19 1.235-.59V18.51c0-.504-.256-.808-1.235-.827v-.522l2.622-.067v1.169a5.595 5.595 0 0 1 3.059-1.216c1.169 0 1.9.826 1.9 2.356v4.38c0 .408.238.57 1.235.588v.523h-3.724v-.532c.865 0 1.083-.19 1.083-.59v-3.8c0-1.5-.589-1.9-1.605-1.9a3.256 3.256 0 0 0-1.9.694v4.988c0 .408.218.57 1.064.589v.522h-3.724v-.503h-.01Zm9.557-3.335a3.729 3.729 0 0 1 2.275-3.75 3.723 3.723 0 0 1 1.525-.287c2.385 0 3.8 1.624 3.8 3.97 0 2.347-1.482 4.029-3.8 4.029-2.318 0-3.8-1.587-3.8-3.962Zm5.985 0c0-2.365-.95-3.486-2.28-3.486-1.33 0-2.128 1.12-2.128 3.486s.95 3.496 2.28 3.496c1.33 0 2.157-1.159 2.157-3.524l-.029.028Zm7.619 3.335c.845 0 .95-.19.95-.59v-3.8c0-1.5-.608-1.9-1.625-1.9a2.755 2.755 0 0 0-1.738.694v4.988c0 .408.123.57.95.589v.522h-3.591v-.503c.95 0 1.235-.19 1.235-.59V18.51c0-.504-.257-.808-1.235-.827v-.522l2.622-.067v1.169a5.142 5.142 0 0 1 2.907-1.216 1.784 1.784 0 0 1 1.776 1.434 4.754 4.754 0 0 1 3.145-1.444c1.168 0 1.843.827 1.843 2.356v4.38c0 .408.256.57 1.235.589v.522h-3.639v-.522c.846 0 .95-.19.95-.59v-3.8c0-1.5-.541-1.9-1.558-1.9a3.06 3.06 0 0 0-1.843.865v4.817c0 .408.152.57 1.131.589v.522h-3.534v-.503h.019Zm9.585 0c.95 0 1.235-.19 1.235-.589V18.51c0-.503-.237-.807-1.216-.826v-.523l2.641-.066v6.65c0 .408.238.57 1.235.589v.522h-3.885v-.494h-.01Zm.95-10.184a.949.949 0 0 1 1.622-.757.95.95 0 0 1 .278.672.958.958 0 0 1-.57.938.952.952 0 0 1-1.33-.843v-.01Zm3.715 6.907a3.8 3.8 0 0 1 3.734-4.095c1.776 0 2.688.95 2.688 1.824a.887.887 0 0 1-.227.662.891.891 0 0 1-.637.288.816.816 0 0 1-.893-.864 1.076 1.076 0 0 1 .541-.95 2.195 2.195 0 0 0-1.434-.494c-1.273 0-2.28 1.045-2.28 3.192 0 2.147 1.054 3.391 2.631 3.391a2.995 2.995 0 0 0 2.223-1.13l.342.323a3.529 3.529 0 0 1-3.125 1.757c-2.214 0-3.563-1.653-3.563-3.904Zm16.9-.371h-3.8l-.646 1.662c-.627 1.587-.541 1.796.95 2.033v.494h-3.667V24.4c1.15-.238 1.52-.893 2.1-2.356l3.401-8.455h.76l3.42 9.424a1.903 1.903 0 0 0 1.9 1.387v.494h-4.988V24.4c1.416-.086 1.72-.361 1.416-1.311l-.846-2.375Zm-.218-.608-1.539-4.484h-.067l-1.729 4.484h3.335Zm5.387 4.256c.95 0 1.254-.19 1.254-.589v-5.871h-1.435v-.513l1.435-.304V16.8a3.996 3.996 0 0 1 .95-2.993 2.612 2.612 0 0 1 1.9-.807c1.273 0 1.9.627 1.9 1.264a.804.804 0 0 1-.205.623.792.792 0 0 1-.603.26.952.952 0 0 1-.95-1.064 2.33 2.33 0 0 1 .048-.456 1.02 1.02 0 0 0-.418-.104.955.955 0 0 0-.713.284c-.304.304-.475.865-.475 2.176v1.168h2.147v.713h-2.147v5.9c0 .408.352.541 1.691.588v.523h-4.36v-.513h-.019Zm5.88 0c.95 0 1.254-.19 1.254-.589v-5.871h-1.435v-.513l1.435-.304V16.8a3.999 3.999 0 0 1 .95-2.993 2.633 2.633 0 0 1 1.9-.807c1.273 0 1.9.627 1.9 1.264a.804.804 0 0 1-.204.623.806.806 0 0 1-.604.26.947.947 0 0 1-.913-.665.96.96 0 0 1-.037-.399c.002-.153.018-.306.048-.456-.13-.064-.273-.1-.418-.104a.947.947 0 0 0-.713.284c-.304.304-.475.865-.475 2.176v1.168h2.147v.713h-2.147v5.9c0 .408.352.541 1.691.588v.523h-4.36v-.513h-.019Zm5.681-1.15a1.973 1.973 0 0 1 1.035-1.758 29.228 29.228 0 0 1 3.544-1.215v-.456c0-1.691-.475-2.214-1.577-2.214a1.45 1.45 0 0 0-1.15.437c.124.249.193.521.2.798a.856.856 0 0 1-.893.95.848.848 0 0 1-.846-.95c0-.95 1.302-1.757 2.926-1.757 1.625 0 2.755.798 2.755 2.422v3.876c0 .827.19 1.036 1.302.893l.066.409c-.5.206-1.035.316-1.577.323-.893 0-1.045-.39-1.149-1.302h-.067a3.481 3.481 0 0 1-2.527 1.32 1.792 1.792 0 0 1-1.88-1.032 1.783 1.783 0 0 1-.162-.744Zm4.579-.17v-2.214c-2.432.522-2.993.883-2.993 1.995a1.158 1.158 0 0 0 1.264 1.273 2.36 2.36 0 0 0 1.729-1.007v-.048Zm3.753 1.32c.95 0 1.235-.19 1.235-.589V18.51c0-.503-.238-.807-1.216-.826v-.523l2.641-.066v6.65c0 .408.237.57 1.235.589v.522h-3.895v-.494Zm.95-10.184a.938.938 0 0 1 .246-.728.947.947 0 0 1 .704-.307.948.948 0 0 1 .95.95.947.947 0 0 1-.254.715.95.95 0 0 1-.696.301.949.949 0 0 1-.96-.921l.01-.01Zm4.103 10.184c.95 0 1.235-.19 1.235-.59V18.51c0-.504-.256-.808-1.235-.827v-.522l2.622-.067v1.32a3.1 3.1 0 0 1 2.252-1.367 1.153 1.153 0 0 1 .888.303 1.14 1.14 0 0 1 .366.865.891.891 0 0 1-.874.95.853.853 0 0 1-.95-.883 1.695 1.695 0 0 1 0-.285 2.045 2.045 0 0 0-1.691.95v4.75c0 .408.304.57 1.425.589v.522h-4.076v-.446h.038Zm7.182-1.928h.494c.76 1.254 1.558 2.061 2.537 2.061a1.284 1.284 0 0 0 1.368-1.282c0-.798-.475-1.112-2.014-1.587-1.71-.503-2.318-1.102-2.318-2.166a2.437 2.437 0 0 1 1.691-2.367 2.444 2.444 0 0 1 1.026-.103 3.441 3.441 0 0 1 1.615.4l.304-.438h.389v2.337h-.494c-.541-1.045-1.187-1.776-2.014-1.776a1.25 1.25 0 0 0-1.251.764 1.269 1.269 0 0 0-.098.509c0 .693.57 1.045 1.9 1.434 1.606.456 2.299 1.045 2.299 2.204a2.462 2.462 0 0 1-1.572 2.403 2.463 2.463 0 0 1-1.002.162 4.608 4.608 0 0 1-1.967-.541l-.503.541h-.39v-2.555ZM63 44.616a1.966 1.966 0 0 1 1.036-1.758 29.099 29.099 0 0 1 3.553-1.187v-.532c0-1.691-.475-2.214-1.577-2.214a1.463 1.463 0 0 0-1.15.437c.124.249.192.521.2.798a.855.855 0 0 1-.893.95.844.844 0 0 1-.846-.95c0-.95 1.302-1.757 2.926-1.757 1.625 0 2.755.798 2.755 2.422v3.876c0 .827.19 1.036 1.302.893l.066.409c-.5.206-1.035.316-1.577.323-.893 0-1.045-.39-1.15-1.302h-.066a3.485 3.485 0 0 1-2.536 1.34A1.796 1.796 0 0 1 63 44.616Zm4.589-.171V42.23c-2.432.523-2.993.884-2.993 1.995A1.168 1.168 0 0 0 65.86 45.5a2.364 2.364 0 0 0 1.72-1.054h.009Zm3.743 1.32c.95 0 1.235-.19 1.235-.589v-5.263c0-.503-.257-.807-1.235-.826v-.523l2.622-.066v1.168a5.595 5.595 0 0 1 3.059-1.216c1.168 0 1.9.827 1.9 2.356v4.38c0 .408.237.57 1.234.589v.522h-3.724v-.522c.865 0 1.084-.19 1.084-.59v-3.8c0-1.5-.59-1.9-1.606-1.9a3.25 3.25 0 0 0-1.9.694v4.988c0 .408.218.57 1.064.589v.522h-3.733v-.522.01Zm9.576-3.23c0-2.346 1.491-4.142 3.8-4.142.64-.03 1.273.129 1.824.456v-2.926c0-.503-.323-.807-1.302-.826v-.523l2.727-.066v10.668c0 .418.256.57 1.235.608v.504l-2.622.066v-.893a3.05 3.05 0 0 1-2.3.95c-2.127.02-3.362-1.69-3.362-3.876Zm5.586 2.404v-5.007a1.9 1.9 0 0 0-1.739-.95c-1.197 0-2.27 1.235-2.27 3.534 0 1.815.883 3.164 2.403 3.164a2.498 2.498 0 0 0 1.606-.741Zm6.602.807c1.425-.047 1.758-.2 1.758-.731v-8.55c0-.523-.342-.675-1.758-.722V35.2h9.035l.047 3.088h-.522c-.589-1.9-.893-2.508-2.793-2.508h-2.404v4.408h.998c1.254 0 1.729-.114 2.147-1.9h.456v4.398h-.447c-.418-1.757-.893-1.9-2.147-1.9H96.46v4.807h2.404c2.232 0 2.774-.883 3.363-2.85h.522l-.085 3.468h-9.567v-.542.076Zm16.017.019c.846 0 .95-.19.95-.589v-3.8c0-1.5-.608-1.9-1.624-1.9a2.756 2.756 0 0 0-1.739.694v4.987c0 .409.124.57.95.59v.522h-3.61v-.523c.95 0 1.235-.19 1.235-.589v-5.263c0-.503-.256-.807-1.235-.826v-.523l2.622-.066v1.168a5.142 5.142 0 0 1 2.907-1.216 1.784 1.784 0 0 1 1.777 1.435 4.75 4.75 0 0 1 3.078-1.435c1.168 0 1.843.827 1.843 2.356v4.38c0 .408.256.57 1.235.589v.522h-3.639v-.522c.846 0 .95-.19.95-.59v-3.8c0-1.5-.541-1.9-1.558-1.9a3.06 3.06 0 0 0-1.843.865v4.817c0 .408.152.57 1.131.589v.522h-3.43v-.522.028Zm8.835 3.268c.95 0 1.235-.18 1.235-.608v-8.55c0-.503-.256-.807-1.235-.826v-.523l2.622-.066v1.083a3.735 3.735 0 0 1 2.537-1.188c1.995 0 3.078 1.559 3.078 3.8 0 2.242-1.235 4.19-3.42 4.19-.756 0-1.5-.186-2.166-.541v2.593c0 .418.389.57 1.605.608v.503h-4.256v-.503.028Zm6.65-6.764c0-1.9-.798-3.058-2.052-3.058a2.708 2.708 0 0 0-1.957.95v4.227a1.766 1.766 0 0 0 1.9 1.492c1.14.009 2.119-1.264 2.119-3.62l-.01.01Zm2.489 3.496c.95 0 1.235-.19 1.235-.589v-9.253c0-.503-.323-.807-1.301-.826v-.523l2.717-.066v10.668c0 .409.237.57 1.235.59v.522h-3.895v-.523h.009Zm4.674-3.335a3.729 3.729 0 0 1 .999-2.866 3.716 3.716 0 0 1 2.801-1.17c2.385 0 3.8 1.624 3.8 3.97 0 2.347-1.472 4.057-3.8 4.057-2.327 0-3.8-1.615-3.8-3.99Zm5.985 0c0-2.365-.95-3.486-2.28-3.486-1.33 0-2.128 1.121-2.128 3.487 0 2.365.95 3.496 2.28 3.496 1.33 0 2.138-1.16 2.138-3.525l-.01.029Zm3.278-2.346a1.336 1.336 0 0 0-1.254-1.064v-.494h3.8v.494c-1.064.048-1.321.361-1.102.865l1.9 4.617 1.605-3.886c.418-1.016.342-1.406-.826-1.586v-.494h3.116v.494a1.758 1.758 0 0 0-1.368 1.273l-2.85 6.735c-.789 2.08-1.682 2.65-2.632 2.65a1.228 1.228 0 0 1-1.406-1.149.944.944 0 0 1 .57-.938.949.949 0 0 1 .38-.078.95.95 0 0 1 .893.95c-.001.17-.037.338-.104.494.579 0 1.083-.56 1.9-2.508l.085-.2-2.707-6.175Zm13.176 5.681c.846 0 .95-.19.95-.589v-3.8c0-1.501-.608-1.9-1.624-1.9a2.756 2.756 0 0 0-1.739.694v4.987c0 .409.124.57.95.589v.523h-3.619v-.523c.95 0 1.235-.19 1.235-.589v-5.263c0-.503-.257-.807-1.235-.826v-.523l2.622-.067v1.169a5.127 5.127 0 0 1 2.907-1.216 1.777 1.777 0 0 1 1.776 1.434 4.749 4.749 0 0 1 3.078-1.434c1.169 0 1.843.827 1.843 2.356v4.38c0 .408.257.57 1.235.588v.523h-3.591v-.523c.846 0 .95-.19.95-.589v-3.8c0-1.5-.541-1.9-1.558-1.9a3.08 3.08 0 0 0-1.843.865v4.817c0 .408.152.57 1.131.588v.523h-3.534v-.523l.066.029Zm9.187-3.277c0-2.318 1.425-4.094 3.619-4.094 2.195 0 3.23 1.9 3.097 3.8h-5.196v.133c0 1.9.95 3.21 2.584 3.21a3.192 3.192 0 0 0 2.384-1.434l.342.323a3.532 3.532 0 0 1-3.211 2.014c-2.365-.01-3.619-1.72-3.619-3.952Zm1.539-.807 3.638-.086c.171-1.434-.456-2.67-1.672-2.67-1.035-.009-1.833.79-1.966 2.746v.01Zm6.27 4.084c.95 0 1.235-.19 1.235-.589v-5.263c0-.503-.257-.807-1.235-.826v-.523l2.622-.066v1.168a5.592 5.592 0 0 1 3.059-1.216c1.168 0 1.9.827 1.9 2.356v4.38c0 .408.237.57 1.235.589v.522h-3.734v-.522c.865 0 1.083-.19 1.083-.59v-3.8c0-1.5-.589-1.9-1.605-1.9a3.256 3.256 0 0 0-1.9.694v4.988c0 .408.218.57 1.064.589v.522h-3.724v-.522.01Zm10.583-1.453v-5.007h-1.416v-.475l1.473-.304V36.39l1.387-.608v2.85h2.451v.608h-2.461v4.854c0 .95.333 1.368 1.045 1.368a1.647 1.647 0 0 0 1.235-.95l.39.266a2.37 2.37 0 0 1-2.28 1.577c-1.15.076-1.824-.627-1.824-2.042Zm7.913-1.882a3.729 3.729 0 0 1 .999-2.866 3.726 3.726 0 0 1 2.801-1.17c2.385 0 3.8 1.624 3.8 3.97 0 2.347-1.472 4.057-3.8 4.057-2.327 0-3.8-1.615-3.8-3.99Zm5.985 0c0-2.365-.95-3.486-2.28-3.486-1.33 0-2.128 1.121-2.128 3.487 0 2.365.95 3.496 2.28 3.496 1.33 0 2.138-1.16 2.138-3.525l-.01.029Zm2.527 3.335c.95 0 1.254-.19 1.254-.589v-5.87h-1.434v-.476l1.434-.304v-.323a3.998 3.998 0 0 1 .95-2.992 2.633 2.633 0 0 1 1.9-.808c1.273 0 1.9.627 1.9 1.264a.804.804 0 0 1-.204.624.806.806 0 0 1-.603.26.949.949 0 0 1-.95-1.065c.001-.153.017-.305.047-.456-.13-.064-.273-.1-.418-.104a.95.95 0 0 0-.712.285c-.304.304-.475.864-.475 2.175v1.169h2.147v.684h-2.157v5.9c0 .408.352.54 1.691.588v.523h-4.36v-.523l-.01.038Zm8.854-.019c1.425-.047 1.758-.2 1.758-.731v-8.55c0-.523-.342-.675-1.758-.722V35.2h8.997l.123 3.192h-.522c-.57-1.9-1.131-2.584-3.031-2.584h-2.194v4.55h1.111c1.254 0 1.539-.17 1.995-1.842h.456v4.36h-.456c-.427-1.757-.75-1.9-1.995-1.9h-1.111v4.038c0 .56.351.674 1.9.731v.542h-5.225v-.542h-.048Zm10.412.019c.95 0 1.235-.19 1.235-.589v-5.263c0-.503-.237-.807-1.216-.826v-.523l2.641-.066v6.65c0 .408.238.57 1.235.589v.522h-3.895v-.522.028Zm.95-10.184a.955.955 0 0 1 .246-.727.96.96 0 0 1 .704-.308.95.95 0 0 1 .95.95.946.946 0 0 1-.57.938.952.952 0 0 1-.38.078.95.95 0 0 1-.959-.93h.009Zm4.019 10.184c.95 0 1.235-.19 1.235-.589v-5.263c0-.503-.257-.807-1.235-.826v-.523l2.622-.066v1.168a5.592 5.592 0 0 1 3.059-1.216c1.168 0 1.9.827 1.9 2.356v4.38c0 .408.237.57 1.235.589v.522h-3.734v-.522c.865 0 1.083-.19 1.083-.59v-3.8c0-1.5-.589-1.9-1.605-1.9a3.256 3.256 0 0 0-1.9.694v4.988c0 .408.218.57 1.064.589v.522h-3.724v-.522.01Zm9.918 0c.95 0 1.235-.19 1.235-.589v-9.253c0-.503-.323-.807-1.302-.826v-.523l2.727-.066v10.668c0 .409.237.57 1.235.59v.522h-3.886v-.523h-.009Zm5.006-1.149a1.97 1.97 0 0 1 1.036-1.758 29.167 29.167 0 0 1 3.553-1.187v-.532c0-1.691-.475-2.214-1.577-2.214a1.458 1.458 0 0 0-1.15.437c.124.249.192.521.2.798a.851.851 0 0 1-.893.95.843.843 0 0 1-.846-.95c0-.95 1.302-1.757 2.926-1.757 1.625 0 2.755.798 2.755 2.422v3.876c0 .827.19 1.036 1.302.893l.066.409c-.5.206-1.035.316-1.577.323-.893 0-1.045-.39-1.149-1.302h-.067a3.476 3.476 0 0 1-2.536 1.34 1.796 1.796 0 0 1-2.043-1.748Zm4.579-.171V42.23c-2.432.523-2.992.884-2.992 1.995a1.155 1.155 0 0 0 1.263 1.273 2.35 2.35 0 0 0 1.748-1.054h-.019Zm3.772 1.32c.95 0 1.235-.19 1.235-.589v-5.263c0-.503-.257-.807-1.235-.826v-.523l2.622-.066v1.168a5.584 5.584 0 0 1 3.059-1.216c1.168 0 1.9.827 1.9 2.356v4.38c0 .408.237.57 1.235.589v.522h-3.734v-.522c.865 0 1.083-.19 1.083-.59v-3.8c0-1.5-.589-1.9-1.605-1.9a3.256 3.256 0 0 0-1.9.694v4.988c0 .408.218.57 1.064.589v.522h-3.724v-.522.01Zm9.576-3.23c0-2.346 1.491-4.142 3.8-4.142a3.271 3.271 0 0 1 1.824.456v-2.926c0-.503-.323-.807-1.302-.826v-.523l2.727-.066v10.668c0 .418.256.57 1.235.608v.504l-2.622.066v-.893a3.055 3.055 0 0 1-2.299.95c-2.128.02-3.363-1.69-3.363-3.876Zm5.586 2.366v-5.007a1.904 1.904 0 0 0-1.739-.95c-1.197 0-2.27 1.235-2.27 3.534 0 1.815.883 3.164 2.403 3.164a2.49 2.49 0 0 0 1.606-.703V44.9Z"/></svg>